<svg version="1.2" xmlns="http://www.w3.org/2000/svg" viewBox="0 0 1193 1166" width="1193" height="1166">
	<title>paper</title>
	<style>
		.s0 { fill: #ffffff } 
		.s1 { fill: #604c3f } 
	</style>
	<g id="Layer_2">
		<g id="layer1">
		</g>
		<g id="layer2">
			<path class="s0" d="m890.9 875c-16.2 97.6-51.2 195-160.3 210.4-40.3 5.7-100.6 10.2-140.5 1.9l-5.3 0.6c-93.6 9.2-227.2-0.4-287-87.2-30.4-44.1-26.6-94-63.8-137.6-36-42.4-80-77.8-121.5-114.6-41.1-36.4-152.1-129.8-74.2-170.4 44.6-23.2 84.4-9 120.7 13.4 51.1 31.5 90.4 66.8 135.2 105.4 2.7 2.3 5.2 4.4 7.5 6.3l3.7-0.5c-1.1-57.5-16.2-127.5-24.9-184.5-12.2-70.4-29.8-140.4-44.5-210.7-7.3-35.2-20-72.7-24.9-110.8-6-54.4 26.4-108.5 82-79.2 61.1 34.5 92.8 131.2 114.6 192.8 21.5 56.2 67.3 216.5 81.3 275.9l5.6 3.7c15 18.2 9.6-99.3 11.4-107.7 9.1-74.5 11.2-151.4 15.7-225.6 5-66.1 7.3-140.3 24.2-201.6 7.6-25.2 18.1-42.3 41.1-43.7 106.3 1.4 103.6 141.4 100 229.3 0.8 49.3 4 301.6 4.8 350.8l3 1.2c48.7-69.1 155-551.1 277.6-476.5 93.4 56.9-20.3 276.2-48.7 345.2-24.4 65-48.8 130-77.2 190.9l2 5c62.5-32.7 118.2-82.8 172.6-126.9 43.9-35.5 141.2-120.8 158.4-36.5 14.3 69.8-81.2 154.3-125.9 199-48.7 44.6-95.4 73.5-148.2 118.2-5.8 23.4-11.7 46.8-14.5 64z"/>
		</g>
		<g id="layer3">
			<path class="s1" d="m584.8 1076.7c-65.3 6.2-133.4 3.6-195.3-20.1-31-11.9-59.8-31.5-79.7-58.3-23.5-31.5-28.9-72-44.7-107.2-17.4-38.8-53-69.2-83.9-97.1-26.6-24.2-54.2-47.3-81-71.3-21.1-19-42-39-58.8-62.1-11.7-16.2-28.2-42.8-12.6-61.5 18.1-21.8 53.7-24.6 79.1-18.6 31.2 7.4 59.4 28.8 84.9 47.3 25.5 18.5 49.5 39.1 73.4 59.7 16.7 14.4 33.8 33.6 55.3 40.8 18.1 6.1 40.6 0.7 59.2 1q9.7 0.2 19.3 1.4 9.7 1.2 19.1 3.4 9.5 2.2 18.6 5.5 9.2 3.2 18 7.4c45.8 21.9 75.5 64.1 83.2 113.9 2.3 14.3 23.9 8.2 21.7-6-10.2-65.7-55.9-115.6-117.8-137.4-32.1-11.3-64.9-10.9-98.4-9.6-30.7 1.1-52.5-28-74.1-46.4-32.2-27.6-65.3-54-101-76.8-33.1-21.1-69.2-34.9-108.8-26.9-25.8 5.2-55.3 22.3-59.8 50.4-3.9 24.2 9.6 47.6 23.3 66.4 31.8 43.9 76.5 78.4 117 113.8 31.4 27.3 64.6 55.3 89.8 88.6 22.2 29.3 27.3 66.7 41.4 99.8 50.3 117.8 201.2 133 312.6 122.4 14.3-1.3 14.5-23.8 0-22.5z"/>
			<path class="s1" d="m894.6 808c-17.8 71.4-22.2 153.2-69.8 212.9-22.5 28.3-53.4 45.2-88.5 52.2-43 8.6-92 11-135.1 2.5-14.1-2.7-20.2 19-6 21.7 46.9 9.2 95.8 5.5 142.8-1.7 37.8-5.8 72.3-24.9 98-53.2 56-61.8 61-151.3 80.2-228.4 3.6-14.1-18.1-20.1-21.6-6z"/>
			<path class="s1" d="m316.6 702.7c-1.1-42.7-8.1-85-15.2-127-7.6-45-15.1-89.9-24.6-134.5-10-47.3-20.9-94.4-31-141.7-8.9-41.5-27.3-84.5-23.6-127.6 1.3-15.3 7.5-30.8 18.2-41.9 13-13.4 31.9-10.3 47-2.7 29.4 14.5 49.2 47 64.2 74.7 28 51.9 46.2 110.3 64 166.4 23.1 72.8 44.9 146.5 62.5 220.8 3.4 14.1 25 8.1 21.7-6-26.7-112.5-60.1-225-102-332.8-21.8-56.2-54.6-131.6-118.1-150.2-29-8.5-55.5 7.7-69.1 32.9-17.6 32.6-11.1 70.1-3.4 104.4 17.9 79.4 37.7 158.3 53.8 238.1 7.5 36.9 13.2 74.1 19.5 111.2 6.5 38.4 12.6 76.9 13.5 115.9 0.4 14.4 22.9 14.5 22.5 0z"/>
			<path class="s1" d="m486.6 597.8c13.8 15 25.3-3.7 27.3-16.6 3.3-21.7 2.9-44.1 2.9-66 0-26.8 1.6-40.9 4.2-67.5 4.7-48.3 6.9-96.8 9.4-145.2 2.3-45.1 5.2-90.2 9-135.2 3.4-40.8 5.8-88 23.4-125.6 13.5-28.7 50.2-20.4 71-4.1 20.1 15.8 29.4 41.2 35.2 65.3 11 46 6 92.3 6.7 138.9q0.9 51.5 1.5 102.9c1 82.3 2 164.5 3.3 246.8 0.2 14.4 22.7 14.5 22.5 0-1.6-98.6-2.7-197.2-4-295.8-0.6-43.8 1.6-87.6 0-131.3-1.9-49.7-9.5-111.4-51.6-144.4-17.4-13.7-38.5-19.3-60.4-20-27.7-0.8-42.9 25.2-50.7 47.9-11.8 34.3-15 72.8-18.4 108.7-3.8 38.9-6.2 78.1-8.5 117.1-2.3 40.6-4 81.2-6.7 121.8-2.1 31.1-7.8 62.6-8.4 93.7-0.3 18 0.1 36-0.3 54-0.2 9.6-0.6 19.2-1.5 28.7q-0.1 1.1-0.2 2.2-0.1 1.1-0.3 2.2-0.2 1.1-0.4 2.1-0.1 1.1-0.4 2.2c-2.1 10.2 7.2-3.1 11.3 1.3-9.8-10.7-25.7 5.3-15.9 15.9z"/>
			<path class="s1" d="m704.5 598.3c17.1-24.7 26.2-56.2 36.3-84 16.2-45.2 31.4-90.8 47.6-136 17.4-48.2 35.7-96.2 57.8-142.4 16.9-35.4 36.1-73 65.3-99.8 21.2-19.5 45.8-22 66.8-0.9 33.8 34 17.3 99.3 6.5 139.2-14.3 52.6-36.3 102.8-58.4 152.6-32.1 72.3-56.3 147.7-89.6 219.6-6.1 13 13.3 24.5 19.4 11.3 33.3-71.8 57.5-147.3 89.6-219.5 22.5-50.5 44.6-101.4 59.7-154.6 13.2-46.3 24.9-103.6 0.7-148.3-15.5-28.7-50.4-46.6-81.8-34-32 12.7-53.7 44.7-70.9 73-25 41-43.7 85.8-61.4 130.3-33.4 84.4-57 173.2-93.5 256.4-3.9 8.8-8 17.8-13.5 25.7-8.3 12 11.2 23.2 19.4 11.4z"/>
			<path class="s1" d="m848.1 670c71-36.1 130.7-90.7 192-140.7 21.2-17.3 106.2-94.2 125.7-43.1 11 28.8-2.8 59.3-17.8 83.8-18.2 29.9-42.9 55.6-67.4 80.4-24.4 24.5-49.3 48-76.4 69.6-35.3 28.1-72.2 54-106.7 83-11.1 9.4 4.9 25.2 15.9 15.9 34.5-29 71.3-55.1 106.7-83 28.2-22.3 53.9-47 79.2-72.5 41.2-41.5 97.8-99.2 92.5-163-2-23.5-14-48.7-39.2-53.2-24.8-4.3-50.3 10.2-70.4 22.8-60.8 38.1-112.2 90.7-169.8 133.2q-8.9 6.7-18.2 13-9.2 6.3-18.6 12.3-9.5 5.9-19.2 11.4-9.7 5.5-19.6 10.6c-13 6.6-1.6 26 11.3 19.5z"/>
		</g>
	</g>
</svg>