<svg version="1.2" xmlns="http://www.w3.org/2000/svg" viewBox="0 0 1148 1148" width="1148" height="1148">
	<title>rock</title>
	<style>
		.s0 { fill: #ffffff } 
		.s1 { fill: #604c3f } 
	</style>
	<g id="Layer_2">
		<g id="layer1">
		</g>
		<g id="layer2">
			<path class="s0" d="m221.4 631.3c-23.9-60.4-92.7-259.2-27.4-308.8 62-46.4 138.9 1.3 163.4 63.7 1.7 4.2 3.6 8.8 5.6 13.7 13.9 42.2 32.3 82.4 42.1 107.2l0.7 3.1c-23.1 4.7-45.3 6-64.9 2.2-36.5 16.2-58 51.7-87.5 88.2-9.6 12-22.3 20.8-31.9 30.7z"/>
			<path class="s0" d="m723.6 552c13.6-7.1 26.8-16.9 36.8-28.2q0.5-0.6 1.1-1.2c0.1 30 60.7 16.9 74 10.5 43.6-23.6 61.6-70.3 65.4-118.5l1.8 0.1c9.7 30.4 23 78 25.2 91.6 34.8 136.3 82.1 320.6-76.4 397.7-41.1 20-109.3 48.1-154.9 53-252.5 109.5-361-10.8-374.7-26.2-66.7-68-93.3-167.2-113.5-257-4.3-19.3 2.6-31.6 13.1-42.4 9.6-10 22.3-18.7 31.9-30.7 29.5-36.6 51-72.1 87.5-88.3 19.6 3.9 41.8 2.6 64.9-2.2 61.3-12.5 128.7-49.5 168.7-79.8 45.3-34.3 87.9-80.1 133.5-21.4 33.9 43.4 40 98.4 15.6 143z"/>
			<path class="s0" d="m559.4 379.3l0.1-0.1c5.8 19.3 11.4 36.9 15 51.2-40.1 30.3-107.4 67.3-168.8 79.8l-0.6-3.1c-9.8-24.8-28.2-65-42.1-107.1-19.9-60.6-30.2-125.2 8.3-154.5 62-46.3 138.8 1.4 163.4 63.8 9.1 22.2 17.3 45.9 24.7 69.9z"/>
			<path class="s0" d="m761.5 522.6q-0.6 0.6-1.1 1.2c-10 11.3-23.2 21-36.8 28.3 24.4-44.7 18.3-99.7-15.6-143.1-45.6-58.7-88.2-12.9-133.5 21.4-3.6-14.3-9.2-31.9-15-51.1-20.6-68.4-44-157.9 6.9-196.6 50.6-38 111.3-13 145.1 31.4q2.8 3.7 5.4 7.6 2.5 3.9 4.8 7.9 2.3 4.1 4.3 8.3 2 4.2 3.8 8.5c19.3 47.3 34.7 101.4 46.3 151.4 9.4 40.6 14.5 90.7-14.6 124.8z"/>
			<path class="s0" d="m789.9 187.5c60.1 9.1 92.3 88.8 104.4 139.8 5.9 26.1 9 57 6.6 87.3-3.8 48.2-21.8 95-65.5 118.5-13.2 6.4-73.8 19.5-74-10.5 29.2-34 24-84.2 14.6-124.8-11.6-50-26.9-104.1-46.3-151.4q-1.7-4.3-3.7-8.5-2-4.2-4.3-8.3-2.3-4-4.9-7.9-2.5-3.9-5.3-7.6c14.6-23.5 53.6-29.5 78.4-26.6z"/>
		</g>
		<g id="layer3">
			<path class="s1" d="m690.9 947.2c-103.3 44.3-234.6 71-333.1 0.9-29.7-21.2-53.4-52.4-71.6-83.3-20.6-34.8-34.6-73.1-46.1-111.7-5.4-18.2-10.1-36.7-14.5-55.1-4.3-17.9-12-36.5-1-53.1 5.8-8.9 15.7-15.7 23.6-22.7 10.7-9.6 19.2-21.2 28.1-32.6 20-26 39.8-53.2 70.3-67.5l-8.6 1.1c62.3 11.1 127-15.7 181-44.4 27.6-14.7 53.2-32.2 77.7-51.6 22.9-18.1 53.8-46.9 84.2-29 27 15.9 42.8 55.2 45.8 84.9 3.2 31.7-8.1 62.5-29.1 86.1-24.1 27.1-61.9 47.1-94.2 62.7-17.4 8.3-35.2 14.6-54.5 13.9-18.4-0.6-36-3.9-53.7 2.7-13.4 5-7.6 26.8 6 21.7 18.4-6.9 38-1.6 57.1-1.7 19.6-0.2 39-9.2 56.4-17.2 34.8-16 72.4-38.3 98.9-66.2 47-49.6 45.1-124.7 6.7-178.5-19.8-27.6-48.3-44.6-82.2-32.6-31.8 11.2-56.8 38.4-84 57.3-56.6 39-131.5 77.3-202.1 71.4-8.7-0.7-12.7-2-20.8 1.9q-2.9 1.4-5.7 3-2.7 1.6-5.4 3.3-2.7 1.7-5.2 3.6-2.6 1.9-5 4c-16.1 13-29.2 28.9-41.9 45.2-11.4 14.7-22 30-35.7 42.6-11.1 10.3-23 19.5-30.6 32.9-7.4 13.1-6.2 27.9-3.1 42.1 4.5 19.9 9.3 39.7 14.6 59.4 10.2 37.9 23.1 75 40.2 110.4 36.3 75.3 94.6 133.5 176.7 154.1 91.4 23 187.9-2.4 272.2-38.5 13.3-5.7 1.8-25.1-11.4-19.5z"/>
			<path class="s1" d="m229.8 614.7q-5.8-14.4-11-28.9-5.3-14.5-10-29.1-4.8-14.7-9.1-29.5-4.3-14.8-8.2-29.7c-10.9-42.8-21.4-92.1-9.5-135.8 5.8-21.6 20.8-35 41.7-42.5 26.8-9.6 55-1 77.8 14 24.1 15.9 38.5 40.1 49.2 66.2 11.4 27.6 23.3 55 32.6 83.4 4.5 13.7 26.3 7.8 21.7-6-10.1-30.7-23.1-60.5-35.4-90.4-11.8-28.4-28.7-51.7-53.5-70.3-43.6-32.8-115.3-32.8-146.5 17.4-25.4 41-14.6 100.4-5.6 144.6 9.9 48.7 25.9 96.3 44.1 142.5 5.2 13.4 27 7.6 21.7-6z"/>
			<path class="s1" d="m416 504.1c-14.3-35.8-30.1-70.9-42.2-107.5-12.4-37.4-25.8-83-11.4-121.5 7.7-20.7 30.2-31.7 50.4-35.9 24.5-5.1 49.6 5.5 69.3 19.4 22.3 15.7 36 39.1 45.8 63.9 12.6 31.7 22.5 64.4 31.3 97.2 3.8 14 25.5 8 21.7-6-9.8-36.4-21.2-72.4-35.3-107.4-10.4-25.6-26.8-48.1-48.9-64.7-42-31.6-106.4-37.8-143.4 5.7-29.8 35-19.5 89.4-8.9 129.7 12.2 46 32.4 89 49.9 133 5.3 13.3 27.1 7.5 21.7-6z"/>
			<path class="s1" d="m585.4 427.3c-13.4-51.4-33.7-101.3-37.9-154.8-1.9-24-0.2-51.3 15.4-71 19.2-24.3 53-30.5 81.5-22.6 71.5 19.9 90.4 107.5 107.5 169.1 9.6 34.6 19.9 70.4 20.3 106.5 0.4 40.4-20 69.1-54.8 88.1-12.8 7-1.4 26.4 11.3 19.4 34.7-18.9 58.9-47.1 64.5-86.8 5.4-37.7-4.7-75.6-14-111.9-10.8-42.6-23.2-86.1-41.3-126.3-3.3-7.6-7.3-14.8-11.9-21.7-4.6-6.9-9.8-13.4-15.4-19.5-5.7-6-11.8-11.6-18.4-16.6-6.5-5.1-13.5-9.6-20.8-13.4-55.9-29.5-127.8-4.6-143.3 58.7-14.4 58.6 10.3 124.1 27.2 179.6 3 9.7 5.8 19.4 8.4 29.3 3.6 14 25.3 8 21.7-6z"/>
			<path class="s1" d="m720.6 220.8c12.8-19.8 41.1-23.3 62.7-22.6 24.2 0.8 44.4 18.2 58.4 36.4 27.4 35.8 42.1 83.3 47.1 127.6 5.1 45.6 0.7 95.7-26.9 133.9q-4.2 5.9-9.5 11-5.2 5.1-11.3 9.2-6.1 4.1-12.8 6.9-6.7 2.9-13.8 4.5c-8.3 1.9-41.4 8.4-41.8-5.9-0.4-14.5-22.9-14.5-22.5 0 1.4 51 82.4 29.1 106.8 10.6 48.1-36.6 58.9-102.4 55.2-159.2-3.6-56.7-22.7-117.2-60-161-18.4-21.7-43.8-35.7-72.4-36.7-29-0.9-62.2 8.4-78.6 33.9-7.9 12.3 11.6 23.5 19.4 11.4z"/>
			<path class="s1" d="m891.9 417.7c15.7 49.6 28 100.3 39.8 151 12.1 52 21.6 105.1 19.2 158.7-2.2 50-18.7 98-55.1 133.2-21.6 20.9-48.9 33.7-76 45.8-34.6 15.3-71.6 28.7-109.4 33.2-14.2 1.6-14.3 24.2 0 22.5 37.9-4.5 73.8-16.6 108.8-31.2 30-12.5 59-26.3 84.2-47 42.1-34.6 62.6-85.9 68.6-138.8 6.5-56-3.4-113.4-15.4-167.9-12.1-55.6-26-111.2-43.1-165.5-4.4-13.7-26.1-7.9-21.7 6z"/>
			<path class="s1" d="m540.2 666.7c32.8 9.5 52.9 43.1 63.4 73.5 10.8 31.3 14.2 70.7-7.1 98.4-8.9 11.5 10.7 22.7 19.4 11.4 25-32.5 21.3-79 9.4-115.8-12.4-38.1-38.9-77.5-79-89.2-14-4-19.9 17.7-6 21.7z"/>
		</g>
	</g>
</svg>