<svg version="1.2" xmlns="http://www.w3.org/2000/svg" viewBox="0 0 1148 1148" width="1148" height="1148">
	<title>scissors</title>
	<style>
		.s0 { fill: #ffffff } 
		.s1 { fill: #604c3f } 
	</style>
	<g id="Layer_2">
		<g id="layer1">
		</g>
		<g id="layer2">
			<path class="s0" d="m872.6 832.6c-32.2 121-75.6 284.9-232.3 275.9-40.6-2.4-100.6-10.4-138.1-26.5l-5.3 0.3c-243.9-24.7-275.9-165.4-279.9-183.3-22.3-81.8 0.2-170.5 23.6-249.1 2.2-7.4 5.5-12.8 9.6-16.8 13.8-13.8 36.7-12.3 57.2-20.5 38.8-15.6 71-33.8 106.4-30.5 49.6 42 156.2 46.2 217.2 37.8 2.5-0.3 5-0.7 7.4-1.1 47.8-7.3 96.2-19.7 105.7 42.5 5.2 34.8-3.1 67.9-22.3 92.8q-4.9 6.3-10.7 11.8-5.8 5.6-12.3 10.2-6.5 4.6-13.6 8.2-7.1 3.6-14.7 6.2l0.3 0.8c7.8 14.6 23.9 29.5 30.4 33.4 63.2 34.5 139.1-11.9 182.2-56.1l5 2.7c-5.7 24.8-12.6 52.4-15.8 61.3z"/>
			<path class="s0" d="m749.9 23c109.6 30.3 70.1 164.7 43.1 248.5-12 47.8-56.6 172.7-68.7 220.5l2.6 2.9c-1.7 1.6-3.3 3.2-5 4.8-16.7 16.6-31.9 34.6-47 52.6-14 16.7-34.2 36.2-38.6 58.4l2.1 8.1c-2.5 0.3-5 0.7-7.5 1.1-60.9 8.4-167.5 4.2-217.2-37.8-35.4-3.3-67.6 14.9-106.3 30.5-20.6 8.2-43.5 6.6-57.3 20.5 10.9-15.4 18.3-23.9 20.9-36.8 14-55.8 17.3-113.7 23.2-171.1 5.9-71.3 11.3-140 14.6-211.9 1.7-35.9-1.5-75.6 3.3-113.7 8.2-54.1 55.9-97.5 105.8-54.1 54.1 50 61.5 151.9 68 217.3 7.4 60.1 12.6 227.3 11.5 288.4l4.8 5c10.8 21.7 36.1-93.2 40.1-100.7 29-69.5 51.4-143.1 75.6-213.6 22.6-62.4 44.4-133.3 78-188 14.5-22.1 29.8-35.8 54-30.9z"/>
			<path class="s0" d="m879 577.2q-1.4 3.9-3 7.7-1.7 3.8-3.6 7.5-1.9 3.6-4 7.2-2.2 3.5-4.6 6.9c-25.9 37.5-58.8 75.2-90.5 108.2-14.3 14.9-31.5 30.2-50.8 40l-0.8-0.6c19.3-24.9 27.6-58 22.3-92.8-9.4-62.2-57.8-49.9-105.6-42.5l-2.1-8.1c4.4-22.2 24.7-41.7 38.7-58.4 15.1-18 30.3-36 47-52.6 1.6-1.6 3.2-3.2 5-4.8 27.4-26.3 65.7-55.4 105.1-41.3 52.9 19.4 63.7 76.7 46.9 123.6z"/>
			<path class="s0" d="m937 622.7c22.4 49.3-21.4 112.1-53.6 145.9-43 44.2-119 90.5-182.2 56.1-6.5-3.9-22.6-18.8-30.5-33.4l-0.2-0.8q7.6-2.6 14.7-6.2 7.1-3.6 13.6-8.2 6.5-4.7 12.3-10.2 5.7-5.5 10.6-11.8l0.8 0.6c19.3-9.8 36.5-25.1 50.8-40 31.7-33 64.6-70.7 90.5-108.2q2.4-3.4 4.6-6.9 2.1-3.6 4-7.2 1.9-3.7 3.6-7.5 1.6-3.8 3-7.7c24.7-0.6 48.1 25.6 58 45.5z"/>
		</g>
		<g id="layer3">
			<path class="s1" d="m496.9 1071c-98.8-10.4-211.6-46.3-257.9-142.5-16.1-33.5-20.4-74.3-19.7-111.2 0.8-47 12.1-93.4 24.6-138.5 4.8-17 6.7-37.3 25.2-44.3 15.1-5.8 31.4-7 46.5-13.2 31.6-12.9 63-30.3 98.2-28l-8-3.3c44.3 36.2 107.1 43.6 162.4 44.6 26.8 0.5 53.3-1.8 79.8-6 21-3.3 52.3-11.8 70.7 3.1 21.3 17.4 17.6 58.1 11.3 81.4-7.6 28.2-27.8 50.3-53.6 63-30.6 15-72.4 13.5-105.5 12.1-18.5-0.8-36.8-3.3-52.8-13-14-8.4-26.4-18.8-43.1-21.3-14.1-2.2-20.2 19.5-6 21.7 17.3 2.6 30.2 15.1 45 23.3 16.9 9.3 38.1 10.6 56.9 11.8 36.2 2.2 79.6 1.5 113.3-13.6 58.5-26.3 88.2-98 65.5-158.4-22.1-58.9-97-31.1-142.6-27.6q-12.8 1-25.7 1.2-12.9 0.2-25.7-0.4-12.9-0.6-25.7-1.9-12.8-1.4-25.5-3.5-6-1-11.9-2.3-6-1.3-11.8-2.9-5.9-1.5-11.7-3.3-5.8-1.9-11.5-3.9-2.7-1.1-5.4-2.2-2.7-1.1-5.3-2.4-2.6-1.2-5.2-2.5-2.6-1.4-5.1-2.8c-6.4-3.5-12.9-11.1-19.8-13-16.3-4.5-37.7 1.7-53.2 6.6-21.5 6.7-41.6 17.4-62.7 25.2-26.3 9.9-58.8 7.9-69.8 39.9-28.5 83.2-44.3 172.7-24.9 259.5 13.9 62 61.9 111.1 115.8 141.4 53.3 30 114.5 43.3 174.9 49.7 14.4 1.5 14.2-21 0-22.5z"/>
			<path class="s1" d="m647.2 613.7c6-24.5 27-43 42.7-61.7 18.7-22.3 38.1-44 60.3-62.9 20.4-17.4 46.6-32.6 74.2-26.2 20.6 4.9 37.4 22 45 41.2 16.3 41.4-3.4 81.1-27.7 114-17.8 24.2-37.7 46.9-58 69.1-20 21.9-40.4 43.6-66.9 57.8-12.8 6.8-1.4 26.2 11.4 19.4 29.7-15.9 52.6-40.7 75.1-65.3q9-9.8 17.7-19.9 8.7-10 17.2-20.4 8.4-10.3 16.4-20.9 8.1-10.6 15.9-21.4c27.3-38.5 37-90.3 13.8-133.2-11.3-20.9-31.8-35-54-42.1-28.9-9.1-59.4 4.9-82.6 21.3-26.8 19.1-49 44.5-70.3 69.4-19.4 22.8-44.7 45.7-52 75.8-3.4 14.1 18.3 20.1 21.7 6z"/>
			<path class="s1" d="m878 588.5c37.8 0.2 58.2 47.5 52.3 79.3-6.5 35.3-30.8 67.3-54.9 92.9-46.4 49.3-149 103.6-194.9 24.9-7.3-12.5-26.8-1.2-19.4 11.3 56.1 96.2 178.2 36.6 235.3-25.7 29.3-31.9 55.7-72.5 58-116.8 2.1-40.5-34-88.2-76.3-88.4-14.6-0.1-14.6 22.4 0 22.5z"/>
			<path class="s1" d="m877.5 768.3c-10.3 45.2-22.7 90.3-36.4 134.6-13.2 42.8-29.6 85-55.2 122.1-24.6 35.8-59.8 61.5-102.7 70-26.2 5.1-53.7 2-79.9-1-30.6-3.5-61.4-9.7-90-21.5-13.4-5.5-19.2 16.3-6 21.7 29.1 12 60.1 17.7 91.2 21.7 27.5 3.5 55.9 6.1 83.5 1.9 46.1-7.1 84.8-32.3 113.6-68.5 29.6-37.2 48-82.1 62.8-126.8 16.1-48.5 29.5-98.5 40.8-148.3 3.2-14.1-18.5-20.1-21.7-6z"/>
			<path class="s1" d="m500.6 789.5c38.8 39.5 19.9 134.3-30.7 156.2-13.3 5.7-1.8 25.1 11.4 19.4 64.2-27.8 83.3-142.5 35.3-191.5-10.2-10.4-26.1 5.5-16 15.9z"/>
			<path class="s1" d="m258.8 640.4c9.2-13 19.2-25.3 23.1-41.1q2.1-8.8 3.9-17.6 1.9-8.8 3.5-17.7 1.6-8.8 3-17.7 1.3-8.9 2.5-17.8c6.1-47.7 10.1-95.7 14-143.5 3.8-47.6 7.2-95 9.8-142.7 2.6-47.4-2.8-97.1 5.1-144 5.8-33.9 34.7-72.3 72.4-54.2 31.6 15.2 47.7 55.6 57.3 86.9 17.6 57.3 21.3 120 25.4 179.7 5.4 79.8 8.7 160.5 7.3 240.5-0.2 14.5 22.3 14.5 22.5 0 2-116-3.1-233.9-18-349-8-61.9-23.5-143.8-83.1-177.5-28.6-16.1-61-6.2-81.7 17.2-26.6 30.1-27.4 71.7-27.8 109.7-0.7 81.9-6 163.2-12.7 244.8-3.4 42.2-7.1 84.4-12.3 126.4q-1 8.2-2.2 16.3-1.3 8.2-2.7 16.3-1.4 8.1-3.1 16.2-1.6 8.1-3.5 16.1c-3.8 16.4-12.6 27.8-22.2 41.3-8.4 11.9 11.1 23.1 19.4 11.4z"/>
			<path class="s1" d="m492.5 561.9c10.2 18 25.9 2.9 31.5-9.4 9.2-20.4 14.7-42.6 20.5-64 2.3-8.2 4.4-16.5 6.8-24.6 1.6-5.5 0.2-1.5 1.8-5.4q7.6-18.3 14.7-36.8c17-44.2 31.6-89.3 46.5-134.2q21-62.7 43.8-124.8c14.2-38.7 29.5-82.8 56.2-114.9 22.8-27.4 58.9-8.4 78 14 16.9 19.9 19.6 48.8 19 73.7-1.2 57.3-22.6 114.2-39.3 168.5-19 61.7-42.4 122.5-58.5 185.1-3.6 14 18.1 20 21.7 6 14.9-58.1 36.2-114.6 54.3-171.8 16.3-51.4 34.3-104 41.7-157.5 7.1-51.8 1.4-109-46.2-139.9-26.2-17-56.5-21.1-81 0.3-13.1 11.4-21.8 28.3-29.9 43.3-10.1 18.7-18.5 38.3-26.5 58-38.4 94.4-65.4 193-101.5 288.2-9.5 25.1-18.3 48.8-25.4 74.6-3.5 12.8-7.2 25.5-11.4 38-1.7 5-3.4 9.9-5.6 14.6q-0.3 0.8-0.7 1.6-0.4 0.7-0.8 1.5-0.4 0.7-0.8 1.5-0.4 0.7-0.8 1.4c-2.3 3.8 14 6.5 11.3 1.7-7.1-12.6-26.6-1.3-19.4 11.4z"/>
		</g>
	</g>
</svg>